<svg width="20" height="20" viewBox="0 0 20 20" fill="none" xmlns="http://www.w3.org/2000/svg">
<g id="arrows and chevrons/ChevronExpand">
<path id="icon" fill-rule="evenodd" clip-rule="evenodd" d="M10.6129 3.2097C10.2206 2.90468 9.65338 2.93241 9.29289 3.29289L6.29289 6.29289L6.2097 6.3871C5.90468 6.77939 5.93241 7.34662 6.29289 7.70711L6.3871 7.7903C6.77939 8.09532 7.34662 8.06759 7.70711 7.70711L10 5.415L12.2929 7.70711L12.3871 7.7903C12.7794 8.09532 13.3466 8.06759 13.7071 7.70711C14.0976 7.31658 14.0976 6.68342 13.7071 6.29289L10.7071 3.29289L10.6129 3.2097ZM7.6129 12.2097C7.22061 11.9047 6.65338 11.9324 6.29289 12.2929C5.90237 12.6834 5.90237 13.3166 6.29289 13.7071L9.29289 16.7071L9.3871 16.7903C9.77939 17.0953 10.3466 17.0676 10.7071 16.7071L13.7071 13.7071L13.7903 13.6129C14.0953 13.2206 14.0676 12.6534 13.7071 12.2929L13.6129 12.2097C13.2206 11.9047 12.6534 11.9324 12.2929 12.2929L10 14.585L7.70711 12.2929L7.6129 12.2097Z" fill="#606B85"/>
</g>
</svg>
