<svg width="20" height="20" viewBox="0 0 20 20" fill="none" xmlns="http://www.w3.org/2000/svg">
<g id="Icon &#226;&#134;&#147;">
<g id="Icon &#226;&#134;&#147;_2">
<path d="M3 6C3 5.44772 3.44772 5 4 5H16C16.5523 5 17 5.44772 17 6C17 6.55228 16.5523 7 16 7H4C3.44772 7 3 6.55228 3 6Z" fill="#121C2D"/>
<path d="M5 10C5 9.44772 5.44772 9 6 9H14C14.5523 9 15 9.44772 15 10C15 10.5523 14.5523 11 14 11H6C5.44772 11 5 10.5523 5 10Z" fill="#121C2D"/>
<path d="M8 13C7.44772 13 7 13.4477 7 14C7 14.5523 7.44772 15 8 15H12C12.5523 15 13 14.5523 13 14C13 13.4477 12.5523 13 12 13H8Z" fill="#121C2D"/>
</g>
</g>
</svg>
