<svg width="20" height="20" viewBox="0 0 20 20" fill="none" xmlns="http://www.w3.org/2000/svg">
<g id="&#226;&#154;&#153;&#239;&#184;&#143; Icon">
<path id="icon" fill-rule="evenodd" clip-rule="evenodd" d="M12.2464 6.03548L15.2819 3H13.6698C13.3937 3 13.1698 2.77614 13.1698 2.5C13.1698 2.22386 13.3937 2 13.6698 2H16.482H16.4961H16.4982C16.7744 2 16.9982 2.22386 16.9982 2.5V5.32843C16.9982 5.60457 16.7744 5.82843 16.4982 5.82843C16.2221 5.82843 15.9982 5.60457 15.9982 5.32843V3.69789L12.9535 6.74259C12.7583 6.93785 12.4417 6.93785 12.2464 6.74259C12.0512 6.54733 12.0512 6.23075 12.2464 6.03548ZM5.30209 2.49995C4.86868 2.49995 4.45093 2.67172 4.14122 2.98081L3.659 3.46163C3.02338 4.0962 2.622 4.93009 2.52362 5.82616C2.42549 6.71995 2.63502 7.61958 3.11608 8.37684L3.11727 8.37882C3.12201 8.3867 3.12696 8.39446 3.13211 8.40208C5.39133 11.7402 8.26971 14.6145 11.6111 16.8696L11.6154 16.8727C11.6214 16.8768 11.6274 16.8808 11.6335 16.8847C12.39 17.3658 13.287 17.574 14.1764 17.4765C15.0659 17.3789 15.8972 16.9811 16.5323 16.3463L17.0133 15.866C17.1669 15.7127 17.2893 15.5301 17.373 15.3284C17.4568 15.1266 17.5 14.9099 17.5 14.6909C17.5 14.4718 17.4568 14.2551 17.373 14.0533C17.2893 13.8516 17.1669 13.669 17.0133 13.5157L14.9836 11.4902C14.8302 11.3369 14.6486 11.2159 14.4495 11.1335C14.2503 11.0511 14.0372 11.0088 13.8222 11.0088C13.6072 11.0088 13.394 11.0511 13.1949 11.1335C12.9957 11.216 12.814 11.3371 12.6605 11.4904C12.5399 11.6108 12.3741 11.6803 12.1991 11.6803C12.0241 11.6803 11.8582 11.6107 11.7375 11.4903L8.49225 8.24851C8.37197 8.12836 8.30638 7.96773 8.30638 7.80256C8.30638 7.63747 8.37191 7.47691 8.49208 7.35677C8.64567 7.20348 8.76808 7.02089 8.8518 6.81914C8.93552 6.61736 8.97876 6.4007 8.97876 6.18162C8.97876 5.96255 8.93552 5.74589 8.8518 5.54411C8.76808 5.34236 8.64567 5.15977 8.49208 5.00648L6.46319 2.98103C6.15345 2.6718 5.73561 2.49995 5.30209 2.49995ZM4.84051 3.7099C4.96118 3.58942 5.12702 3.51988 5.30209 3.51988C5.47717 3.51988 5.64302 3.58944 5.7637 3.70991L7.79268 5.73546C7.85238 5.79503 7.89916 5.86519 7.93088 5.94163C7.96258 6.01804 7.97876 6.09956 7.97876 6.18162C7.97876 6.26369 7.96258 6.3452 7.93088 6.42162C7.89916 6.49806 7.85221 6.56838 7.79251 6.62796C7.48251 6.93765 7.30638 7.35993 7.30638 7.80256C7.30638 8.24518 7.48252 8.66748 7.79253 8.97716L11.038 12.2191C11.3477 12.5284 11.7656 12.7002 12.1991 12.7002C12.6326 12.7002 13.0506 12.5282 13.3604 12.219C13.4201 12.1593 13.4915 12.1115 13.5709 12.0786C13.6502 12.0458 13.7357 12.0287 13.8222 12.0287C13.9087 12.0287 13.9941 12.0458 14.0735 12.0786C14.1529 12.1115 14.2246 12.1596 14.2842 12.2192L16.3139 14.2447C16.3736 14.3043 16.4204 14.3744 16.4521 14.4509C16.4838 14.5273 16.5 14.6088 16.5 14.6909C16.5 14.7729 16.4838 14.8544 16.4521 14.9308C16.4204 15.0073 16.3735 15.0776 16.3138 15.1371L15.8325 15.6178C15.3597 16.0903 14.738 16.3891 14.0695 16.4624C13.4048 16.5353 12.7359 16.3807 12.1724 16.0254L12.1663 16.0213C8.93344 13.84 6.14932 11.0613 3.96382 7.83557L3.95814 7.82666C3.5999 7.26498 3.44498 6.59943 3.51741 5.93965C3.58985 5.27981 3.8857 4.66253 4.35852 4.19049L4.84051 3.7099Z" fill="#606B85"/>
</g>
</svg>
