<svg width="21" height="20" viewBox="0 0 21 20" fill="none" xmlns="http://www.w3.org/2000/svg">
<g id="Icon &#226;&#134;&#147;">
<path id="Icon &#226;&#134;&#147;_2" fill-rule="evenodd" clip-rule="evenodd" d="M12.3496 4C12.3496 3.173 11.6766 2.5 10.8496 2.5C10.0226 2.5 9.34961 3.173 9.34961 4C9.34961 4.827 10.0226 5.5 10.8496 5.5C11.6766 5.5 12.3496 4.827 12.3496 4ZM10.8496 8.5C10.0226 8.5 9.34961 9.173 9.34961 10C9.34961 10.827 10.0226 11.5 10.8496 11.5C11.6766 11.5 12.3496 10.827 12.3496 10C12.3496 9.173 11.6766 8.5 10.8496 8.5ZM9.34961 16C9.34961 15.173 10.0226 14.5 10.8496 14.5C11.6766 14.5 12.3496 15.173 12.3496 16C12.3496 16.827 11.6766 17.5 10.8496 17.5C10.0226 17.5 9.34961 16.827 9.34961 16Z" fill="#606B85"/>
</g>
</svg>
