<svg width="16" height="16" viewBox="0 0 16 16" fill="none" xmlns="http://www.w3.org/2000/svg">
<g id="Icon">
<path id="icon" fill-rule="evenodd" clip-rule="evenodd" d="M8.99788 2.01291L13.9868 7.00182C14.5379 7.55289 14.5379 8.44633 13.9868 8.99739L8.99788 13.9863C8.44682 14.5374 7.55337 14.5374 7.00231 13.9863L2.01339 8.99739C1.46233 8.44633 1.46233 7.55289 2.01339 7.00182L7.00231 2.01291C7.55337 1.46184 8.44682 1.46184 8.99788 2.01291ZM8.8001 10.3996C8.8001 10.8414 8.44193 11.1996 8.0001 11.1996C7.55827 11.1996 7.2001 10.8414 7.2001 10.3996C7.2001 9.95778 7.55827 9.59961 8.0001 9.59961C8.44193 9.59961 8.8001 9.95778 8.8001 10.3996ZM7.9919 5.59961H8.00819C8.49691 5.60553 8.86617 6.0735 8.79015 6.59478L8.44804 8.38496C8.41546 8.6219 8.2254 8.79961 8.00276 8.79961H7.99733C7.77468 8.79961 7.58462 8.6219 7.55204 8.38496L7.20993 6.59478C7.13391 6.0735 7.5086 5.59961 7.9919 5.59961Z" fill="#AD1111"/>
</g>
</svg>
