<svg width="20" height="20" viewBox="0 0 20 20" fill="none" xmlns="http://www.w3.org/2000/svg">
<g id="Icon prefix &#226;&#134;&#147;">
<path id="Icon &#226;&#134;&#147;" fill-rule="evenodd" clip-rule="evenodd" d="M5 3C4.45 3 4 3.45 4 4C4 4.55 4.45 5 5 5C5.55 5 6 4.55 6 4C6 3.45 5.55 3 5 3ZM11 4C11 4.55 10.55 5 10 5C9.45 5 9 4.55 9 4C9 3.45 9.45 3 10 3C10.55 3 11 3.45 11 4ZM11 8C11 8.55 10.55 9 10 9C9.45 9 9 8.55 9 8C9 7.45 9.45 7 10 7C10.55 7 11 7.45 11 8ZM10 13C10.55 13 11 12.55 11 12C11 11.45 10.55 11 10 11C9.45 11 9 11.45 9 12C9 12.55 9.45 13 10 13ZM11 16C11 16.55 10.55 17 10 17C9.45 17 9 16.55 9 16C9 15.45 9.45 15 10 15C10.55 15 11 15.45 11 16ZM4 8C4 7.45 4.45 7 5 7C5.55 7 6 7.45 6 8C6 8.55 5.55 9 5 9C4.45 9 4 8.55 4 8ZM5 11C4.45 11 4 11.45 4 12C4 12.55 4.45 13 5 13C5.55 13 6 12.55 6 12C6 11.45 5.55 11 5 11ZM16 4C16 4.55 15.55 5 15 5C14.45 5 14 4.55 14 4C14 3.45 14.45 3 15 3C15.55 3 16 3.45 16 4ZM15 9C15.55 9 16 8.55 16 8C16 7.45 15.55 7 15 7C14.45 7 14 7.45 14 8C14 8.55 14.45 9 15 9ZM16 12C16 12.55 15.55 13 15 13C14.45 13 14 12.55 14 12C14 11.45 14.45 11 15 11C15.55 11 16 11.45 16 12Z" fill="white"/>
</g>
</svg>
