<svg width="20" height="21" viewBox="0 0 20 21" fill="none" xmlns="http://www.w3.org/2000/svg">
<g id="Icon &#226;&#134;&#147;">
<path id="Icon &#226;&#134;&#147;_2" fill-rule="evenodd" clip-rule="evenodd" d="M15.0434 9.54341H10.9566V5.45659C10.9566 4.92904 10.5276 4.5 10 4.5C9.47244 4.5 9.04341 4.92904 9.04341 5.45659V9.54341H4.95659C4.42904 9.54341 4 9.97244 4 10.5C4 11.0276 4.42904 11.4566 4.95659 11.4566H9.04341V15.5434C9.04341 16.071 9.47244 16.5 10 16.5C10.5276 16.5 10.9566 16.071 10.9566 15.5434V11.4566H15.0434C15.571 11.4566 16 11.0276 16 10.5C16 9.97244 15.571 9.54341 15.0434 9.54341Z" fill="white"/>
</g>
</svg>
