<svg width="20" height="20" viewBox="0 0 20 20" fill="none" xmlns="http://www.w3.org/2000/svg">
<g id="&#226;&#156;&#143;&#239;&#184;&#143; Icon">
<path id="icon" fill-rule="evenodd" clip-rule="evenodd" d="M5.42982 5.42982C7.33626 3.52339 10.4272 3.52339 12.3336 5.42982C14.0639 7.16006 14.2238 9.86598 12.8134 11.7766L15.7855 14.75C16.0715 15.0359 16.0715 15.4996 15.7855 15.7855C15.4996 16.0715 15.0359 16.0715 14.75 15.7855L11.7774 12.8128C9.86673 14.2238 7.1603 14.0641 5.42982 12.3336C3.52339 10.4272 3.52339 7.33626 5.42982 5.42982ZM6.46539 6.46539C5.13089 7.7999 5.13089 9.96355 6.46539 11.2981C7.7999 12.6326 9.96355 12.6326 11.2981 11.2981C12.6326 9.96355 12.6326 7.7999 11.2981 6.46539C9.96355 5.13089 7.7999 5.13089 6.46539 6.46539Z" fill="#606B85"/>
</g>
</svg>
