<svg width="16" height="16" viewBox="0 0 16 16" fill="none" xmlns="http://www.w3.org/2000/svg">
<g id="Icon">
<path id="icon" fill-rule="evenodd" clip-rule="evenodd" d="M14.3289 2.21532C14.4374 2.06246 14.4219 1.85112 14.2824 1.71497C14.1254 1.56181 13.8709 1.56181 13.714 1.71497L12.1508 3.23918L10.5877 1.71497L10.532 1.66959C10.3753 1.5637 10.1588 1.57882 10.0192 1.71497C9.86228 1.86814 9.86228 2.11647 10.0192 2.26963L11.5824 3.79385L10.0192 5.32028L9.97274 5.37459C9.86422 5.52745 9.87972 5.73879 10.0192 5.87494C10.1762 6.0281 10.4307 6.0281 10.5877 5.87494L12.1508 4.34851L13.714 5.87494L13.7696 5.92032C13.9263 6.02621 14.1428 6.01109 14.2824 5.87494C14.4393 5.72177 14.4393 5.47344 14.2824 5.32028L12.7192 3.79385L14.2824 2.26963L14.3289 2.21532ZM5.59323 6.00581C5.58446 8.43166 4.41727 9.55909 2.00158 9.5933C1.46211 9.60093 1.46836 10.4085 2.00789 10.4077C4.48713 10.4045 5.56879 11.5755 5.59324 13.997C5.59857 14.5239 6.38093 14.5394 6.40722 14.0132C6.5295 11.5647 7.67284 10.3989 9.99129 10.4077C10.5292 10.4098 10.5398 9.60548 10.002 9.59336C7.51852 9.53738 6.39846 8.37347 6.40772 6.00888C6.40968 5.46589 5.59535 5.46282 5.59323 6.00581ZM5.99677 8.21156L6.05154 8.33093C6.40788 9.06468 6.97159 9.61035 7.74135 9.95811L7.83591 9.99856L7.80474 10.0128C7.04524 10.3643 6.47785 10.934 6.10651 11.7118L6.03587 11.8662L6.01981 11.8256C5.68497 11.0189 5.13183 10.422 4.35352 10.0494L4.21302 9.98553C4.972 9.65126 5.53777 9.12419 5.90519 8.40463L5.99677 8.21156Z" fill="#6D2ED1"/>
</g>
</svg>
