<svg width="21" height="20" viewBox="0 0 21 20" fill="none" xmlns="http://www.w3.org/2000/svg">
<g id="other/communication/Voicemail">
<path id="icon" fill-rule="evenodd" clip-rule="evenodd" d="M9.84961 11C9.84961 12.1947 9.32585 13.2671 8.49543 14H13.2038C12.3734 13.2671 11.8496 12.1947 11.8496 11C11.8496 8.79086 13.6405 7 15.8496 7C18.0587 7 19.8496 8.79086 19.8496 11C19.8496 13.2091 18.0587 15 15.8496 15H5.84961C3.64047 15 1.84961 13.2091 1.84961 11C1.84961 8.79086 3.64047 7 5.84961 7C8.05875 7 9.84961 8.79086 9.84961 11ZM5.84961 14C7.50646 14 8.84961 12.6569 8.84961 11C8.84961 9.34315 7.50646 8 5.84961 8C4.19276 8 2.84961 9.34315 2.84961 11C2.84961 12.6569 4.19276 14 5.84961 14ZM15.8496 14C17.5065 14 18.8496 12.6569 18.8496 11C18.8496 9.34315 17.5065 8 15.8496 8C14.1928 8 12.8496 9.34315 12.8496 11C12.8496 12.6569 14.1928 14 15.8496 14Z" fill="#606B85"/>
</g>
</svg>
